# xmcd
#
# Track frame offsets: 
#        150
#        16290
#        29322
#        46740
#        61130
#        77810
#        91657
#        110800
#        125902
#        141275
#
# Disc length: 2031 seconds
#
# Revision: 1
# Processed by: cddbd v1.5.2PL0 Copyright (c) Steve Scherf et al.
# Submitted via: ExactAudioCopy v0.95b2
#
DISCID=8007ed0a
DTITLE=Dorothy Moore - Misty Blue
DYEAR=1976
DGENRE=R&B
TTITLE0=The Only Time You Ever Say You Love Me
TTITLE1=Dark End Of The Street
TTITLE2=Funny How Time Slips Away
TTITLE3=Laugh It Off
TTITLE4=Misty Blue
TTITLE5=Enough Woman Left (To Be Your Lady)
TTITLE6=I Don't Want To Be With Nobody But You
TTITLE7=Ain't That A Mother's Luck
TTITLE8=Too Much Love
TTITLE9=It's So Good
EXTD=
EXTT0=
EXTT1=
EXTT2=
EXTT3=
EXTT4=
EXTT5=
EXTT6=
EXTT7=
EXTT8=
EXTT9=
PLAYORDER=
